<mxfile host="app.diagrams.net" modified="2023-11-16T10:02:14.775Z" agent="Mozilla/5.0 (Windows NT 10.0; Win64; x64) AppleWebKit/537.36 (KHTML, like Gecko) Chrome/119.0.0.0 Safari/537.36" etag="pYdWHgCPGRSbeJ8zcZgM" version="22.1.2" type="github">
  <diagram name="Page-1" id="FAYloSDTTYDVObzhy5Y4">
    <mxGraphModel dx="1095" dy="508" grid="1" gridSize="10" guides="1" tooltips="1" connect="1" arrows="1" fold="1" page="1" pageScale="1" pageWidth="850" pageHeight="1100" math="0" shadow="0">
      <root>
        <mxCell id="0" />
        <mxCell id="1" parent="0" />
        <mxCell id="4K18NPuj7CFa846aqN2v-1" value="" style="rounded=1;whiteSpace=wrap;html=1;strokeColor=#666666;fillColor=#f5f5f5;glass=0;shadow=0;fontColor=#333333;" vertex="1" parent="1">
          <mxGeometry x="150" y="430" width="920" height="400" as="geometry" />
        </mxCell>
        <mxCell id="4K18NPuj7CFa846aqN2v-2" value="" style="rounded=1;whiteSpace=wrap;html=1;fillColor=none;fontColor=#333333;strokeColor=#FF6666;dashed=1;dashPattern=8 8;strokeWidth=2;" vertex="1" parent="1">
          <mxGeometry x="190" y="470" width="290" height="320" as="geometry" />
        </mxCell>
        <mxCell id="4K18NPuj7CFa846aqN2v-4" value="" style="rounded=0;whiteSpace=wrap;html=1;fillColor=#bac8d3;strokeColor=#23445d;" vertex="1" parent="1">
          <mxGeometry x="523" y="557" width="130" height="230" as="geometry" />
        </mxCell>
        <mxCell id="4K18NPuj7CFa846aqN2v-7" value="api" style="sketch=0;html=1;dashed=0;whitespace=wrap;fillColor=#2875E2;strokeColor=#ffffff;points=[[0.005,0.63,0],[0.1,0.2,0],[0.9,0.2,0],[0.5,0,0],[0.995,0.63,0],[0.72,0.99,0],[0.5,1,0],[0.28,0.99,0]];verticalLabelPosition=bottom;align=center;verticalAlign=top;shape=mxgraph.kubernetes.icon;prIcon=api;spacing=-6;fontSize=13;" vertex="1" parent="1">
          <mxGeometry x="292.5" y="491" width="85" height="85" as="geometry" />
        </mxCell>
        <mxCell id="4K18NPuj7CFa846aqN2v-8" value="etcd" style="sketch=0;html=1;dashed=0;whitespace=wrap;fillColor=#2875E2;strokeColor=#ffffff;points=[[0.005,0.63,0],[0.1,0.2,0],[0.9,0.2,0],[0.5,0,0],[0.995,0.63,0],[0.72,0.99,0],[0.5,1,0],[0.28,0.99,0]];verticalLabelPosition=bottom;align=center;verticalAlign=top;shape=mxgraph.kubernetes.icon;prIcon=etcd;fontSize=13;spacing=-6;" vertex="1" parent="1">
          <mxGeometry x="199.5" y="650" width="85" height="85" as="geometry" />
        </mxCell>
        <mxCell id="4K18NPuj7CFa846aqN2v-10" value="sched" style="sketch=0;html=1;dashed=0;whitespace=wrap;fillColor=#2875E2;strokeColor=#ffffff;points=[[0.005,0.63,0],[0.1,0.2,0],[0.9,0.2,0],[0.5,0,0],[0.995,0.63,0],[0.72,0.99,0],[0.5,1,0],[0.28,0.99,0]];verticalLabelPosition=bottom;align=center;verticalAlign=top;shape=mxgraph.kubernetes.icon;prIcon=sched;fontSize=13;spacing=-6;" vertex="1" parent="1">
          <mxGeometry x="292" y="650" width="85" height="85" as="geometry" />
        </mxCell>
        <mxCell id="4K18NPuj7CFa846aqN2v-11" value="c-m" style="sketch=0;html=1;dashed=0;whitespace=wrap;fillColor=#2875E2;strokeColor=#ffffff;points=[[0.005,0.63,0],[0.1,0.2,0],[0.9,0.2,0],[0.5,0,0],[0.995,0.63,0],[0.72,0.99,0],[0.5,1,0],[0.28,0.99,0]];verticalLabelPosition=bottom;align=center;verticalAlign=top;shape=mxgraph.kubernetes.icon;prIcon=c_m;fontSize=13;spacing=-6;" vertex="1" parent="1">
          <mxGeometry x="385.5" y="650" width="85" height="85" as="geometry" />
        </mxCell>
        <mxCell id="4K18NPuj7CFa846aqN2v-14" value="" style="endArrow=classic;html=1;rounded=0;exitX=0.147;exitY=0.835;exitDx=0;exitDy=0;exitPerimeter=0;entryX=0.706;entryY=0.129;entryDx=0;entryDy=0;entryPerimeter=0;" edge="1" parent="1" source="4K18NPuj7CFa846aqN2v-7" target="4K18NPuj7CFa846aqN2v-8">
          <mxGeometry width="50" height="50" relative="1" as="geometry">
            <mxPoint x="560" y="710" as="sourcePoint" />
            <mxPoint x="610" y="660" as="targetPoint" />
          </mxGeometry>
        </mxCell>
        <mxCell id="4K18NPuj7CFa846aqN2v-15" value="" style="endArrow=classic;html=1;rounded=0;exitX=0.5;exitY=0.406;exitDx=0;exitDy=0;exitPerimeter=0;" edge="1" parent="1" source="4K18NPuj7CFa846aqN2v-2" target="4K18NPuj7CFa846aqN2v-10">
          <mxGeometry width="50" height="50" relative="1" as="geometry">
            <mxPoint x="335" y="620" as="sourcePoint" />
            <mxPoint x="270" y="671" as="targetPoint" />
          </mxGeometry>
        </mxCell>
        <mxCell id="4K18NPuj7CFa846aqN2v-16" value="" style="endArrow=classic;html=1;rounded=0;exitX=0.853;exitY=0.776;exitDx=0;exitDy=0;exitPerimeter=0;entryX=0.312;entryY=0.106;entryDx=0;entryDy=0;entryPerimeter=0;" edge="1" parent="1" source="4K18NPuj7CFa846aqN2v-7" target="4K18NPuj7CFa846aqN2v-11">
          <mxGeometry width="50" height="50" relative="1" as="geometry">
            <mxPoint x="345" y="620" as="sourcePoint" />
            <mxPoint x="345" y="660" as="targetPoint" />
          </mxGeometry>
        </mxCell>
        <mxCell id="4K18NPuj7CFa846aqN2v-17" value="Node" style="text;html=1;strokeColor=none;fillColor=none;align=center;verticalAlign=middle;whiteSpace=wrap;rounded=0;" vertex="1" parent="1">
          <mxGeometry x="558" y="554" width="60" height="30" as="geometry" />
        </mxCell>
        <mxCell id="4K18NPuj7CFa846aqN2v-19" value="kubelet" style="sketch=0;html=1;dashed=0;whitespace=wrap;fillColor=#2875E2;strokeColor=#ffffff;points=[[0.005,0.63,0],[0.1,0.2,0],[0.9,0.2,0],[0.5,0,0],[0.995,0.63,0],[0.72,0.99,0],[0.5,1,0],[0.28,0.99,0]];verticalLabelPosition=bottom;align=center;verticalAlign=top;shape=mxgraph.kubernetes.icon;prIcon=kubelet;spacing=-4;fontSize=11;" vertex="1" parent="1">
          <mxGeometry x="553" y="597" width="70" height="70" as="geometry" />
        </mxCell>
        <mxCell id="4K18NPuj7CFa846aqN2v-20" value="k-proxy" style="sketch=0;html=1;dashed=0;whitespace=wrap;fillColor=#2875E2;strokeColor=#ffffff;points=[[0.005,0.63,0],[0.1,0.2,0],[0.9,0.2,0],[0.5,0,0],[0.995,0.63,0],[0.72,0.99,0],[0.5,1,0],[0.28,0.99,0]];verticalLabelPosition=bottom;align=center;verticalAlign=top;shape=mxgraph.kubernetes.icon;prIcon=k_proxy;fontSize=11;spacing=-4;" vertex="1" parent="1">
          <mxGeometry x="553" y="695" width="70" height="70" as="geometry" />
        </mxCell>
        <mxCell id="4K18NPuj7CFa846aqN2v-29" value="" style="outlineConnect=0;dashed=0;verticalLabelPosition=bottom;verticalAlign=top;align=center;html=1;shape=mxgraph.aws3.user;fillColor=#EA6B66;gradientColor=none;" vertex="1" parent="1">
          <mxGeometry x="301.25" y="305" width="67.5" height="90" as="geometry" />
        </mxCell>
        <mxCell id="4K18NPuj7CFa846aqN2v-31" value="" style="endArrow=classic;html=1;rounded=0;exitX=0.5;exitY=1;exitDx=0;exitDy=0;exitPerimeter=0;" edge="1" parent="1" source="4K18NPuj7CFa846aqN2v-29" target="4K18NPuj7CFa846aqN2v-7">
          <mxGeometry width="50" height="50" relative="1" as="geometry">
            <mxPoint x="560" y="710" as="sourcePoint" />
            <mxPoint x="470" y="360" as="targetPoint" />
          </mxGeometry>
        </mxCell>
        <mxCell id="4K18NPuj7CFa846aqN2v-32" value="" style="endArrow=classic;html=1;rounded=0;entryX=0.944;entryY=0.425;entryDx=0;entryDy=0;entryPerimeter=0;" edge="1" parent="1" target="4K18NPuj7CFa846aqN2v-7">
          <mxGeometry width="50" height="50" relative="1" as="geometry">
            <mxPoint x="1054" y="527" as="sourcePoint" />
            <mxPoint x="810" y="650" as="targetPoint" />
          </mxGeometry>
        </mxCell>
        <mxCell id="4K18NPuj7CFa846aqN2v-34" value="" style="endArrow=none;html=1;rounded=0;entryX=0.971;entryY=0.471;entryDx=0;entryDy=0;entryPerimeter=0;" edge="1" parent="1">
          <mxGeometry width="50" height="50" relative="1" as="geometry">
            <mxPoint x="677.03" y="626.44" as="sourcePoint" />
            <mxPoint x="618" y="626.4100000000001" as="targetPoint" />
          </mxGeometry>
        </mxCell>
        <mxCell id="4K18NPuj7CFa846aqN2v-35" value="" style="endArrow=none;html=1;rounded=0;entryX=0.971;entryY=0.471;entryDx=0;entryDy=0;entryPerimeter=0;" edge="1" parent="1">
          <mxGeometry width="50" height="50" relative="1" as="geometry">
            <mxPoint x="677" y="727" as="sourcePoint" />
            <mxPoint x="618" y="727" as="targetPoint" />
          </mxGeometry>
        </mxCell>
        <mxCell id="4K18NPuj7CFa846aqN2v-36" value="" style="endArrow=none;html=1;rounded=0;" edge="1" parent="1">
          <mxGeometry width="50" height="50" relative="1" as="geometry">
            <mxPoint x="677" y="727" as="sourcePoint" />
            <mxPoint x="677" y="527" as="targetPoint" />
          </mxGeometry>
        </mxCell>
        <mxCell id="4K18NPuj7CFa846aqN2v-51" value="" style="rounded=0;whiteSpace=wrap;html=1;fillColor=#bac8d3;strokeColor=#23445d;" vertex="1" parent="1">
          <mxGeometry x="710" y="557" width="130" height="230" as="geometry" />
        </mxCell>
        <mxCell id="4K18NPuj7CFa846aqN2v-52" value="Node" style="text;html=1;strokeColor=none;fillColor=none;align=center;verticalAlign=middle;whiteSpace=wrap;rounded=0;" vertex="1" parent="1">
          <mxGeometry x="745" y="554" width="60" height="30" as="geometry" />
        </mxCell>
        <mxCell id="4K18NPuj7CFa846aqN2v-53" value="kubelet" style="sketch=0;html=1;dashed=0;whitespace=wrap;fillColor=#2875E2;strokeColor=#ffffff;points=[[0.005,0.63,0],[0.1,0.2,0],[0.9,0.2,0],[0.5,0,0],[0.995,0.63,0],[0.72,0.99,0],[0.5,1,0],[0.28,0.99,0]];verticalLabelPosition=bottom;align=center;verticalAlign=top;shape=mxgraph.kubernetes.icon;prIcon=kubelet;spacing=-4;fontSize=11;" vertex="1" parent="1">
          <mxGeometry x="740" y="597" width="70" height="70" as="geometry" />
        </mxCell>
        <mxCell id="4K18NPuj7CFa846aqN2v-54" value="k-proxy" style="sketch=0;html=1;dashed=0;whitespace=wrap;fillColor=#2875E2;strokeColor=#ffffff;points=[[0.005,0.63,0],[0.1,0.2,0],[0.9,0.2,0],[0.5,0,0],[0.995,0.63,0],[0.72,0.99,0],[0.5,1,0],[0.28,0.99,0]];verticalLabelPosition=bottom;align=center;verticalAlign=top;shape=mxgraph.kubernetes.icon;prIcon=k_proxy;fontSize=11;spacing=-4;" vertex="1" parent="1">
          <mxGeometry x="740" y="695" width="70" height="70" as="geometry" />
        </mxCell>
        <mxCell id="4K18NPuj7CFa846aqN2v-55" value="" style="endArrow=none;html=1;rounded=0;entryX=0.971;entryY=0.471;entryDx=0;entryDy=0;entryPerimeter=0;" edge="1" parent="1">
          <mxGeometry width="50" height="50" relative="1" as="geometry">
            <mxPoint x="864.03" y="626.44" as="sourcePoint" />
            <mxPoint x="805" y="626.4100000000001" as="targetPoint" />
          </mxGeometry>
        </mxCell>
        <mxCell id="4K18NPuj7CFa846aqN2v-56" value="" style="endArrow=none;html=1;rounded=0;entryX=0.971;entryY=0.471;entryDx=0;entryDy=0;entryPerimeter=0;" edge="1" parent="1">
          <mxGeometry width="50" height="50" relative="1" as="geometry">
            <mxPoint x="864" y="727" as="sourcePoint" />
            <mxPoint x="805" y="727" as="targetPoint" />
          </mxGeometry>
        </mxCell>
        <mxCell id="4K18NPuj7CFa846aqN2v-57" value="" style="endArrow=none;html=1;rounded=0;" edge="1" parent="1">
          <mxGeometry width="50" height="50" relative="1" as="geometry">
            <mxPoint x="864" y="727" as="sourcePoint" />
            <mxPoint x="864" y="527" as="targetPoint" />
          </mxGeometry>
        </mxCell>
        <mxCell id="4K18NPuj7CFa846aqN2v-58" value="" style="rounded=0;whiteSpace=wrap;html=1;fillColor=#bac8d3;strokeColor=#23445d;" vertex="1" parent="1">
          <mxGeometry x="900" y="557" width="130" height="230" as="geometry" />
        </mxCell>
        <mxCell id="4K18NPuj7CFa846aqN2v-59" value="Node" style="text;html=1;strokeColor=none;fillColor=none;align=center;verticalAlign=middle;whiteSpace=wrap;rounded=0;" vertex="1" parent="1">
          <mxGeometry x="935" y="554" width="60" height="30" as="geometry" />
        </mxCell>
        <mxCell id="4K18NPuj7CFa846aqN2v-60" value="kubelet" style="sketch=0;html=1;dashed=0;whitespace=wrap;fillColor=#2875E2;strokeColor=#ffffff;points=[[0.005,0.63,0],[0.1,0.2,0],[0.9,0.2,0],[0.5,0,0],[0.995,0.63,0],[0.72,0.99,0],[0.5,1,0],[0.28,0.99,0]];verticalLabelPosition=bottom;align=center;verticalAlign=top;shape=mxgraph.kubernetes.icon;prIcon=kubelet;spacing=-4;fontSize=11;" vertex="1" parent="1">
          <mxGeometry x="930" y="597" width="70" height="70" as="geometry" />
        </mxCell>
        <mxCell id="4K18NPuj7CFa846aqN2v-61" value="k-proxy" style="sketch=0;html=1;dashed=0;whitespace=wrap;fillColor=#2875E2;strokeColor=#ffffff;points=[[0.005,0.63,0],[0.1,0.2,0],[0.9,0.2,0],[0.5,0,0],[0.995,0.63,0],[0.72,0.99,0],[0.5,1,0],[0.28,0.99,0]];verticalLabelPosition=bottom;align=center;verticalAlign=top;shape=mxgraph.kubernetes.icon;prIcon=k_proxy;fontSize=11;spacing=-4;" vertex="1" parent="1">
          <mxGeometry x="930" y="695" width="70" height="70" as="geometry" />
        </mxCell>
        <mxCell id="4K18NPuj7CFa846aqN2v-62" value="" style="endArrow=none;html=1;rounded=0;entryX=0.971;entryY=0.471;entryDx=0;entryDy=0;entryPerimeter=0;" edge="1" parent="1">
          <mxGeometry width="50" height="50" relative="1" as="geometry">
            <mxPoint x="1054.03" y="626.44" as="sourcePoint" />
            <mxPoint x="995" y="626.4100000000001" as="targetPoint" />
          </mxGeometry>
        </mxCell>
        <mxCell id="4K18NPuj7CFa846aqN2v-63" value="" style="endArrow=none;html=1;rounded=0;entryX=0.971;entryY=0.471;entryDx=0;entryDy=0;entryPerimeter=0;" edge="1" parent="1">
          <mxGeometry width="50" height="50" relative="1" as="geometry">
            <mxPoint x="1054" y="727" as="sourcePoint" />
            <mxPoint x="995" y="727" as="targetPoint" />
          </mxGeometry>
        </mxCell>
        <mxCell id="4K18NPuj7CFa846aqN2v-64" value="" style="endArrow=none;html=1;rounded=0;" edge="1" parent="1">
          <mxGeometry width="50" height="50" relative="1" as="geometry">
            <mxPoint x="1054" y="727" as="sourcePoint" />
            <mxPoint x="1054" y="527" as="targetPoint" />
          </mxGeometry>
        </mxCell>
      </root>
    </mxGraphModel>
  </diagram>
</mxfile>
